<mxfile host="app.diagrams.net" modified="2022-07-02T07:31:53.927Z" agent="5.0 (Windows NT 10.0; Win64; x64) AppleWebKit/537.36 (KHTML, like Gecko) Chrome/100.0.4896.160 YaBrowser/22.5.4.904 Yowser/2.5 Safari/537.36" etag="aD54e5JwbyFnsV7o9Ejb" version="20.0.4" type="github">
  <diagram id="lDt1Tfp5EZL5h4D8WUvh" name="Page-1">
    <mxGraphModel dx="1422" dy="909" grid="1" gridSize="10" guides="1" tooltips="1" connect="1" arrows="1" fold="1" page="1" pageScale="1" pageWidth="827" pageHeight="1169" math="0" shadow="0">
      <root>
        <mxCell id="0" />
        <mxCell id="1" parent="0" />
        <mxCell id="eTSDqOZaDJ2M3Y3geUar-21" value="" style="rounded=0;html=1;jettySize=auto;orthogonalLoop=1;fontSize=11;endArrow=block;endFill=0;endSize=8;strokeWidth=1;shadow=0;labelBackgroundColor=none;edgeStyle=orthogonalEdgeStyle;" edge="1" parent="1" source="eTSDqOZaDJ2M3Y3geUar-22" target="eTSDqOZaDJ2M3Y3geUar-31">
          <mxGeometry relative="1" as="geometry">
            <mxPoint x="230" y="180" as="targetPoint" />
          </mxGeometry>
        </mxCell>
        <mxCell id="eTSDqOZaDJ2M3Y3geUar-22" value="factorial" style="rounded=1;whiteSpace=wrap;html=1;fontSize=12;glass=0;strokeWidth=1;shadow=0;" vertex="1" parent="1">
          <mxGeometry x="170" y="30" width="120" height="40" as="geometry" />
        </mxCell>
        <mxCell id="eTSDqOZaDJ2M3Y3geUar-24" style="edgeStyle=orthogonalEdgeStyle;rounded=0;orthogonalLoop=1;jettySize=auto;html=1;entryX=0.5;entryY=0;entryDx=0;entryDy=0;" edge="1" parent="1" source="eTSDqOZaDJ2M3Y3geUar-25" target="eTSDqOZaDJ2M3Y3geUar-29">
          <mxGeometry relative="1" as="geometry" />
        </mxCell>
        <mxCell id="eTSDqOZaDJ2M3Y3geUar-25" value="N= 0;&lt;br&gt;answer = 1;" style="rounded=0;whiteSpace=wrap;html=1;" vertex="1" parent="1">
          <mxGeometry x="170" y="180" width="120" height="50" as="geometry" />
        </mxCell>
        <mxCell id="eTSDqOZaDJ2M3Y3geUar-26" value="No" style="edgeStyle=orthogonalEdgeStyle;rounded=0;orthogonalLoop=1;jettySize=auto;html=1;exitX=0;exitY=0.5;exitDx=0;exitDy=0;entryX=0.5;entryY=0;entryDx=0;entryDy=0;" edge="1" parent="1" source="eTSDqOZaDJ2M3Y3geUar-29">
          <mxGeometry relative="1" as="geometry">
            <mxPoint x="100" y="320" as="targetPoint" />
          </mxGeometry>
        </mxCell>
        <mxCell id="eTSDqOZaDJ2M3Y3geUar-27" value="" style="edgeStyle=orthogonalEdgeStyle;rounded=0;orthogonalLoop=1;jettySize=auto;html=1;exitX=1;exitY=0.5;exitDx=0;exitDy=0;entryX=0.5;entryY=0;entryDx=0;entryDy=0;" edge="1" parent="1" source="eTSDqOZaDJ2M3Y3geUar-29" target="eTSDqOZaDJ2M3Y3geUar-41">
          <mxGeometry relative="1" as="geometry">
            <mxPoint x="420" y="290" as="targetPoint" />
            <Array as="points">
              <mxPoint x="415" y="290" />
            </Array>
          </mxGeometry>
        </mxCell>
        <mxCell id="eTSDqOZaDJ2M3Y3geUar-28" value="Yes" style="edgeLabel;html=1;align=center;verticalAlign=middle;resizable=0;points=[];" vertex="1" connectable="0" parent="eTSDqOZaDJ2M3Y3geUar-27">
          <mxGeometry x="-0.025" y="1" relative="1" as="geometry">
            <mxPoint as="offset" />
          </mxGeometry>
        </mxCell>
        <mxCell id="eTSDqOZaDJ2M3Y3geUar-29" value="N=float(N)" style="rhombus;whiteSpace=wrap;html=1;" vertex="1" parent="1">
          <mxGeometry x="110" y="250" width="240" height="80" as="geometry" />
        </mxCell>
        <mxCell id="eTSDqOZaDJ2M3Y3geUar-30" style="edgeStyle=orthogonalEdgeStyle;rounded=0;orthogonalLoop=1;jettySize=auto;html=1;entryX=0.5;entryY=0;entryDx=0;entryDy=0;" edge="1" parent="1" source="eTSDqOZaDJ2M3Y3geUar-31" target="eTSDqOZaDJ2M3Y3geUar-25">
          <mxGeometry relative="1" as="geometry" />
        </mxCell>
        <mxCell id="eTSDqOZaDJ2M3Y3geUar-31" value="N=input(&quot;N=&quot;);" style="shape=parallelogram;perimeter=parallelogramPerimeter;whiteSpace=wrap;html=1;fixedSize=1;" vertex="1" parent="1">
          <mxGeometry x="170" y="100" width="120" height="60" as="geometry" />
        </mxCell>
        <mxCell id="eTSDqOZaDJ2M3Y3geUar-32" value="" style="edgeStyle=orthogonalEdgeStyle;rounded=0;orthogonalLoop=1;jettySize=auto;html=1;" edge="1" parent="1" target="eTSDqOZaDJ2M3Y3geUar-35">
          <mxGeometry relative="1" as="geometry">
            <mxPoint x="100" y="380" as="sourcePoint" />
          </mxGeometry>
        </mxCell>
        <mxCell id="eTSDqOZaDJ2M3Y3geUar-34" value="" style="edgeStyle=orthogonalEdgeStyle;rounded=0;orthogonalLoop=1;jettySize=auto;html=1;" edge="1" parent="1" source="eTSDqOZaDJ2M3Y3geUar-35">
          <mxGeometry relative="1" as="geometry">
            <mxPoint x="100" y="470" as="targetPoint" />
          </mxGeometry>
        </mxCell>
        <mxCell id="eTSDqOZaDJ2M3Y3geUar-36" style="edgeStyle=orthogonalEdgeStyle;rounded=0;orthogonalLoop=1;jettySize=auto;html=1;entryX=0.5;entryY=0;entryDx=0;entryDy=0;" edge="1" parent="1" source="eTSDqOZaDJ2M3Y3geUar-37" target="eTSDqOZaDJ2M3Y3geUar-40">
          <mxGeometry relative="1" as="geometry" />
        </mxCell>
        <mxCell id="eTSDqOZaDJ2M3Y3geUar-37" value="res=input(&quot;error. &lt;br&gt;Try again?&quot;);" style="shape=parallelogram;perimeter=parallelogramPerimeter;whiteSpace=wrap;html=1;fixedSize=1;" vertex="1" parent="1">
          <mxGeometry x="40" y="320" width="120" height="60" as="geometry" />
        </mxCell>
        <mxCell id="eTSDqOZaDJ2M3Y3geUar-38" value="Yes" style="edgeStyle=orthogonalEdgeStyle;rounded=0;orthogonalLoop=1;jettySize=auto;html=1;entryX=0;entryY=0.5;entryDx=0;entryDy=0;exitX=0;exitY=0.5;exitDx=0;exitDy=0;" edge="1" parent="1" source="eTSDqOZaDJ2M3Y3geUar-40" target="eTSDqOZaDJ2M3Y3geUar-31">
          <mxGeometry relative="1" as="geometry">
            <mxPoint x="490" y="410" as="targetPoint" />
            <Array as="points">
              <mxPoint x="20" y="430" />
              <mxPoint x="20" y="130" />
            </Array>
          </mxGeometry>
        </mxCell>
        <mxCell id="eTSDqOZaDJ2M3Y3geUar-39" style="edgeStyle=orthogonalEdgeStyle;rounded=0;orthogonalLoop=1;jettySize=auto;html=1;exitX=1;exitY=0.5;exitDx=0;exitDy=0;entryX=0;entryY=0.5;entryDx=0;entryDy=0;" edge="1" parent="1" source="eTSDqOZaDJ2M3Y3geUar-40" target="eTSDqOZaDJ2M3Y3geUar-42">
          <mxGeometry relative="1" as="geometry">
            <mxPoint x="160" y="490" as="targetPoint" />
            <Array as="points">
              <mxPoint x="150" y="430" />
              <mxPoint x="150" y="660" />
              <mxPoint x="110" y="660" />
              <mxPoint x="110" y="680" />
            </Array>
          </mxGeometry>
        </mxCell>
        <mxCell id="eTSDqOZaDJ2M3Y3geUar-40" value="res==&#39;yes&#39;" style="rhombus;whiteSpace=wrap;html=1;" vertex="1" parent="1">
          <mxGeometry x="60" y="410" width="80" height="40" as="geometry" />
        </mxCell>
        <mxCell id="eTSDqOZaDJ2M3Y3geUar-47" style="edgeStyle=orthogonalEdgeStyle;rounded=0;orthogonalLoop=1;jettySize=auto;html=1;entryX=0.5;entryY=0;entryDx=0;entryDy=0;exitX=0;exitY=0.5;exitDx=0;exitDy=0;" edge="1" parent="1" source="eTSDqOZaDJ2M3Y3geUar-41" target="eTSDqOZaDJ2M3Y3geUar-43">
          <mxGeometry relative="1" as="geometry">
            <Array as="points">
              <mxPoint x="300" y="345" />
            </Array>
          </mxGeometry>
        </mxCell>
        <mxCell id="eTSDqOZaDJ2M3Y3geUar-54" style="edgeStyle=orthogonalEdgeStyle;rounded=0;orthogonalLoop=1;jettySize=auto;html=1;entryX=0.5;entryY=0;entryDx=0;entryDy=0;" edge="1" parent="1" source="eTSDqOZaDJ2M3Y3geUar-41" target="eTSDqOZaDJ2M3Y3geUar-52">
          <mxGeometry relative="1" as="geometry">
            <Array as="points">
              <mxPoint x="510" y="345" />
            </Array>
          </mxGeometry>
        </mxCell>
        <mxCell id="eTSDqOZaDJ2M3Y3geUar-41" value="N&amp;lt;0 || N%1!==0" style="rhombus;whiteSpace=wrap;html=1;" vertex="1" parent="1">
          <mxGeometry x="350" y="320" width="130" height="50" as="geometry" />
        </mxCell>
        <mxCell id="eTSDqOZaDJ2M3Y3geUar-42" value="end" style="rounded=1;whiteSpace=wrap;html=1;fontSize=12;glass=0;strokeWidth=1;shadow=0;" vertex="1" parent="1">
          <mxGeometry x="60" y="660" width="520" height="40" as="geometry" />
        </mxCell>
        <mxCell id="eTSDqOZaDJ2M3Y3geUar-48" value="" style="edgeStyle=orthogonalEdgeStyle;rounded=0;orthogonalLoop=1;jettySize=auto;html=1;" edge="1" parent="1" source="eTSDqOZaDJ2M3Y3geUar-43" target="eTSDqOZaDJ2M3Y3geUar-46">
          <mxGeometry relative="1" as="geometry" />
        </mxCell>
        <mxCell id="eTSDqOZaDJ2M3Y3geUar-43" value="i=1;" style="rounded=0;whiteSpace=wrap;html=1;" vertex="1" parent="1">
          <mxGeometry x="270" y="380" width="60" height="30" as="geometry" />
        </mxCell>
        <mxCell id="eTSDqOZaDJ2M3Y3geUar-57" style="edgeStyle=orthogonalEdgeStyle;rounded=0;orthogonalLoop=1;jettySize=auto;html=1;" edge="1" parent="1" source="eTSDqOZaDJ2M3Y3geUar-44" target="eTSDqOZaDJ2M3Y3geUar-42">
          <mxGeometry relative="1" as="geometry" />
        </mxCell>
        <mxCell id="eTSDqOZaDJ2M3Y3geUar-44" value="print(answer);" style="shape=document;whiteSpace=wrap;html=1;boundedLbl=1;" vertex="1" parent="1">
          <mxGeometry x="370" y="530" width="120" height="40" as="geometry" />
        </mxCell>
        <mxCell id="eTSDqOZaDJ2M3Y3geUar-50" style="edgeStyle=orthogonalEdgeStyle;rounded=0;orthogonalLoop=1;jettySize=auto;html=1;entryX=0.5;entryY=0;entryDx=0;entryDy=0;exitX=0;exitY=0.5;exitDx=0;exitDy=0;" edge="1" parent="1" source="eTSDqOZaDJ2M3Y3geUar-46" target="eTSDqOZaDJ2M3Y3geUar-49">
          <mxGeometry relative="1" as="geometry">
            <Array as="points">
              <mxPoint x="210" y="470" />
              <mxPoint x="210" y="520" />
            </Array>
          </mxGeometry>
        </mxCell>
        <mxCell id="eTSDqOZaDJ2M3Y3geUar-53" value="No" style="edgeLabel;html=1;align=center;verticalAlign=middle;resizable=0;points=[];" vertex="1" connectable="0" parent="eTSDqOZaDJ2M3Y3geUar-50">
          <mxGeometry x="-0.5647" relative="1" as="geometry">
            <mxPoint as="offset" />
          </mxGeometry>
        </mxCell>
        <mxCell id="eTSDqOZaDJ2M3Y3geUar-55" style="edgeStyle=orthogonalEdgeStyle;rounded=0;orthogonalLoop=1;jettySize=auto;html=1;" edge="1" parent="1" source="eTSDqOZaDJ2M3Y3geUar-46" target="eTSDqOZaDJ2M3Y3geUar-44">
          <mxGeometry relative="1" as="geometry">
            <Array as="points">
              <mxPoint x="400" y="470" />
            </Array>
          </mxGeometry>
        </mxCell>
        <mxCell id="eTSDqOZaDJ2M3Y3geUar-46" value="i&amp;gt;N" style="rhombus;whiteSpace=wrap;html=1;" vertex="1" parent="1">
          <mxGeometry x="230" y="440" width="140" height="60" as="geometry" />
        </mxCell>
        <mxCell id="eTSDqOZaDJ2M3Y3geUar-51" style="edgeStyle=orthogonalEdgeStyle;rounded=0;orthogonalLoop=1;jettySize=auto;html=1;" edge="1" parent="1" source="eTSDqOZaDJ2M3Y3geUar-49">
          <mxGeometry relative="1" as="geometry">
            <mxPoint x="300" y="430" as="targetPoint" />
            <Array as="points">
              <mxPoint x="170" y="430" />
            </Array>
          </mxGeometry>
        </mxCell>
        <mxCell id="eTSDqOZaDJ2M3Y3geUar-58" value="" style="edgeStyle=orthogonalEdgeStyle;rounded=0;orthogonalLoop=1;jettySize=auto;html=1;" edge="1" parent="1" source="eTSDqOZaDJ2M3Y3geUar-49" target="eTSDqOZaDJ2M3Y3geUar-42">
          <mxGeometry relative="1" as="geometry" />
        </mxCell>
        <mxCell id="eTSDqOZaDJ2M3Y3geUar-49" value="answer *= i&lt;br&gt;i+=1" style="rounded=0;whiteSpace=wrap;html=1;" vertex="1" parent="1">
          <mxGeometry x="170" y="530" width="80" height="40" as="geometry" />
        </mxCell>
        <mxCell id="eTSDqOZaDJ2M3Y3geUar-56" style="edgeStyle=orthogonalEdgeStyle;rounded=0;orthogonalLoop=1;jettySize=auto;html=1;entryX=0.75;entryY=0;entryDx=0;entryDy=0;" edge="1" parent="1" source="eTSDqOZaDJ2M3Y3geUar-52" target="eTSDqOZaDJ2M3Y3geUar-44">
          <mxGeometry relative="1" as="geometry" />
        </mxCell>
        <mxCell id="eTSDqOZaDJ2M3Y3geUar-52" value="answer=gamma(N+1);" style="whiteSpace=wrap;html=1;" vertex="1" parent="1">
          <mxGeometry x="450" y="370" width="120" height="40" as="geometry" />
        </mxCell>
      </root>
    </mxGraphModel>
  </diagram>
</mxfile>
